<svg xmlns="http://www.w3.org/2000/svg" width="59" height="25" viewBox="0 0 59 25"><defs><clipPath id="oeega"><path fill="#fff" d="M46.681 0L34.362 12.507l12.32 12.506L59 12.507z"/></clipPath><clipPath id="oeegb"><path fill="#fff" d="M21.496 5.076l-7.504 7.619 7.504 7.618L29 12.695z"/></clipPath><clipPath id="oeegc"><path fill="#fff" d="M4.5 8.122c-2.485 0-4.5 2.045-4.5 4.569 0 2.523 2.015 4.568 4.5 4.568S9 15.214 9 12.691c0-2.524-2.015-4.57-4.5-4.57z"/></clipPath></defs><g><g><path fill="none" stroke="#bb9c66" stroke-miterlimit="20" stroke-width="2" d="M46.681 0v0L34.362 12.507v0l12.32 12.506v0L59 12.507v0z" clip-path="url(&quot;#oeega&quot;)"/></g><g><path fill="none" stroke="#bb9c66" stroke-miterlimit="20" stroke-width="2" d="M21.496 5.076v0l-7.504 7.619v0l7.504 7.618v0L29 12.695v0z" clip-path="url(&quot;#oeegb&quot;)"/></g><g><path fill="none" stroke="#bb9c66" stroke-miterlimit="20" stroke-width="2" d="M4.5 8.122c-2.485 0-4.5 2.045-4.5 4.569 0 2.523 2.015 4.568 4.5 4.568S9 15.214 9 12.691c0-2.524-2.015-4.57-4.5-4.57z" clip-path="url(&quot;#oeegc&quot;)"/></g></g></svg>